<?xml version="1.0" encoding="UTF-8"?>
<svg version="1.1" viewBox="0 0 2048 2048" width="512" height="512" xmlns="http://www.w3.org/2000/svg">
<path transform="translate(487)" d="m0 0h93l1 3h13l7 2 1 1 11 2 12 5 7 2 6 3 8 2 16 8 8 6 14 7 8 6 6 4 8 7 8 5 19 19 9 6 8 7 11 11 9 6 8 7 11 11 9 6 8 7 11 11 9 6 8 7 11 11 9 6 8 7 11 11 9 6 8 7 11 11 9 6 8 7 11 11 9 6 8 7 11 11 9 6 8 7 11 11 9 6 8 7 11 11 9 6 8 7 11 11 9 6 8 7 11 11 9 6 8 7 11 11 9 6 8 7 11 11 9 6 8 7 15 15 9 6 8 7 11 11 9 6 8 7 11 11 9 6 8 7 11 11 9 6 8 7 11 11 9 6 8 7 11 11 9 6 8 7 11 11 9 6 8 7 11 11 9 6 8 7 11 11 9 6 8 7 11 11 9 6 8 7 11 11 9 6 8 7 11 11 9 6 8 7 11 11 9 6 8 7 11 11 9 6 8 7 15 15 9 6 8 7 10 8 6 4 20 20 6 5 3 3v-764l3-4 2-14 2-3 3-10 6-8 3-5 18-18 19-10 5-3h56l2 2 9 2 9 7 6 4 20 20 10 19 1 5v8l3 1 1 16v1853l-1 42-2 2-2 13-9 17-9 10-12 12-12 7-13 6-1 2h-57l-3-3-21-11-17-17-12-23-3-8-2-10-1-1-1-7-1-759-28 28-11 7-9 9-7 4-8 7-14 14h-2v2l-6 2-20 20h-2v2l-6 2-22 22-6 2-22 22-7 3-21 21-6 2-26 26-6 2-22 22-7 3-21 21-7 3-21 21-7 3-21 21-7 3-21 21-7 3-21 21-7 3-21 21-7 3-21 21-6 2-26 26-6 2-22 22-7 3-21 21-7 3-21 21-7 3-21 21-7 3-21 21-7 3-21 21-7 3-21 21-6 2-26 26-6 2-22 22-7 3-21 21-6 2-22 22-6 2-22 22-6 2-20 20h-2v2l-6 2-20 20h-2v2l-6 2-20 20-9 5-10 9-7 4-12 8-10 6-21 10-13 5-7 3-9 3-26 6-8 1-1 2h-97l-1-2-25-6-17-5-10-3-36-18-15-8-4-4-8-4-8-8-5-2-10-9-29-29-5-8v-2h-2l-8-10-5-8-6-10-20-40-10-30-1-12-2-3-1-5-1-16-2-3-1-5v-1551l3-5 1-16 2-6 1-2 2-17 3-7 6-18 11-23 10-19 3-6 6-8 3-5 8-9 3-6 11-11 5-6 8-7 12-12 6-3 12-10 7-4 5-4 15-9 21-11 9-4 7-2 12-6 7-1 2-2 14-2 3-2 5-1h13z" fill="#fff"/>
<path transform="translate(454,2040)" d="m0 0h2l-1 2z" fill="#fff"/>
<path transform="translate(589)" d="m0 0" fill="#fff"/>
</svg>
